Coordinates
version=1
nRows=8
nColumns=36
inDegrees=yes

Units are S.I. units (second, meters, Newtons, ...)
If the header above contains a line with 'inDegrees', this indicates whether rotational values are in degrees (yes) or radians (no).

endheader
time	pelvis_tilt	pelvis_list	pelvis_rotation	pelvis_tx	pelvis_ty	pelvis_tz	hip_flexion_r	hip_adduction_r	hip_rotation_r	knee_angle_r	knee_angle_r_beta	ankle_angle_r	subtalar_angle_r	mtp_angle_r	hip_flexion_l	hip_adduction_l	hip_rotation_l	knee_angle_l	knee_angle_l_beta	ankle_angle_l	subtalar_angle_l	mtp_angle_l	lumbar_extension	lumbar_bending	lumbar_rotation	arm_flex_r	arm_add_r	arm_rot_r	elbow_flex_r	pro_sup_r	arm_flex_l	arm_add_l	arm_rot_l	elbow_flex_l	pro_sup_l
      0.00000000	      4.71743660	      1.77532792	     -0.05067138	     -0.89208636	      1.32149898	     -0.09266997	     -9.96232623	     -4.36175349	      3.50496643	      0.51675891	      0.00901914	      7.91254158	    -10.23227128	     -5.44990647	     -9.92651080	     -1.30485554	      2.99488745	      0.29307301	      0.00511509	      8.55232472	     -3.78644631	     -5.44990647	    -17.08384022	     -0.19599286	      0.55570717	     11.65216521	     -9.85756566	     24.58118535	     25.10533964	     72.12637219	      8.15656514	     -6.53264600	     26.88869802	     24.33634316	     63.24021343
      0.00416670	      4.55935745	      1.72961723	      0.39926239	     -0.89357473	      1.32077479	     -0.09313241	     -9.94615004	     -3.80987030	      4.40004250	      0.31820390	      0.00555371	     10.06821398	     -9.20671666	     -5.64113116	     -9.62695743	     -1.28143098	      4.51654941	      0.22588017	      0.00394235	      8.75148129	     -3.67895844	     -5.64113116	    -16.79301796	      0.08265146	      0.32803229	     11.81710859	     -9.90602549	     24.11768705	     25.26924996	     71.78213973	      8.44183687	     -6.34622218	     27.18231233	     24.82093685	     63.33414896
      0.00833330	      3.94592992	      1.87893888	      0.24645105	     -0.89457318	      1.32100111	     -0.09210572	     -9.19126481	     -3.88563730	      4.08412777	      0.24916672	      0.00434878	     10.59237382	     -9.24329509	     -5.91550485	     -8.93555723	     -1.12903080	      4.94724634	      0.21464570	      0.00374627	      8.63983016	     -4.07302863	     -5.91550485	    -16.60448755	     -0.37651391	      0.75324570	     11.65155580	     -9.44242002	     22.02243326	     25.64883267	     73.35230404	      9.31529213	     -6.55280396	     29.22530684	     24.48865978	     65.16624474
      0.01250000	      4.80319301	      1.92689913	      0.23584989	     -0.89634726	      1.32238804	     -0.09171892	     -9.98108961	     -4.01441147	      4.53212291	      0.22291936	      0.00389068	     10.62553033	     -9.80088408	     -6.63702774	     -9.80103151	     -1.05269109	      5.30279047	      0.17924601	      0.00312843	      9.06289534	     -3.84671625	     -6.63702774	    -18.23211164	     -0.60905301	      0.97024820	     11.45361086	     -8.82572758	     16.66780790	     26.38401210	     83.13995823	     10.19080756	     -6.37600977	     28.22546962	     24.05986272	     70.51307742
      0.01666670	      5.24883673	      1.90129253	      0.20979994	     -0.89688121	      1.32630613	     -0.09217893	    -10.42640636	     -4.03421280	      4.59002699	      0.20821670	      0.00363407	     10.45296408	     -9.98350829	     -6.82955464	    -10.24668621	     -1.05928710	      5.75220937	      0.15975975	      0.00278833	      9.18254187	     -3.96691917	     -6.82955464	    -19.13058223	     -0.60159031	      0.90778514	     11.55031146	     -8.60844470	     16.07805583	     26.68898705	     81.82876179	     10.53512026	     -6.15010013	     27.88010476	     23.93372960	     70.00611365
      0.02083330	      5.73792540	      1.92971009	      0.10466325	     -0.89831165	      1.32317432	     -0.09194081	    -10.93331313	     -4.11559453	      4.79284019	      0.20305433	      0.00354397	     10.40301129	    -10.38197150	     -7.07992074	    -10.73702293	     -0.98269335	      6.00554469	      0.15215730	      0.00265565	      9.41680376	     -4.25089056	     -7.07992074	    -19.90543086	     -0.60940728	      1.11574882	     11.32808867	     -8.14062506	     11.69195467	     27.25684609	     90.77154746	     10.74787051	     -5.75642218	     25.43307191	     23.92556960	     75.93708558
      0.02500000	      6.05893097	      1.94465610	      0.03648310	     -0.89722512	      1.32184958	     -0.09140970	    -11.26387441	     -4.13750284	      5.02949977	      0.20072878	      0.00350338	     10.31847801	    -10.77098524	     -7.17079745	    -11.10525405	     -0.95726518	      6.24695537	      0.14746081	      0.00257368	      9.60561004	     -4.42086966	     -7.17079745	    -20.25389712	     -0.57999737	      1.26860246	     11.29465151	     -7.96899337	     11.22262109	     27.23391680	     87.51100679	     10.83131279	     -5.47702949	     24.50729176	     23.86560202	     74.26765990
      0.02916670	      6.44313140	      2.00648758	     -0.01584982	     -0.89774012	      1.32600727	     -0.09145208	    -11.69045537	     -4.21626440	      5.15463908	      0.19337640	      0.00337505	     10.10705557	    -11.00221697	     -7.24881238	    -11.52576333	     -0.90301701	      6.47248048	      0.14374080	      0.00250875	      9.56047254	     -4.63561704	     -7.24881238	    -20.79642173	     -0.59788005	      1.28301340	     11.21459838	     -7.92008932	     10.90212704	     27.70331952	     87.03682992	     10.69069884	     -5.42808466	     23.06397955	     24.59949412	     74.38676722
